HIERARCHY
ROOT ui
{
	 OFFSET 0 0 0
	 CHANNELS 3 XPosition YPosition Z Position
	 EndSite
	 {
	 OFFSET 0 -1 0
	 }
}
ROOT li
{
	 OFFSET 0 0 0
	 CHANNELS 3 XPosition YPosition Z Position
	 EndSite
	 {
	 OFFSET 0 -1 0
	 }
}
ROOT ul
{
	 OFFSET 0 0 0
	 CHANNELS 3 XPosition YPosition Z Position
	 EndSite
	 {
	 OFFSET 0 -1 0
	 }
}
ROOT ll
{
	 OFFSET 0 0 0
	 CHANNELS 3 XPosition YPosition Z Position
	 EndSite
	 {
	 OFFSET 0 -1 0
	 }
}
ROOT tt
{
	 OFFSET 0 0 0
	 CHANNELS 3 XPosition YPosition Z Position
	 EndSite
	 {
	 OFFSET 0 -1 0
	 }
}
ROOT tb
{
	 OFFSET 0 0 0
	 CHANNELS 3 XPosition YPosition Z Position
	 EndSite
	 {
	 OFFSET 0 -1 0
	 }
}
ROOT td
{
	 OFFSET 0 0 0
	 CHANNELS 3 XPosition YPosition Z Position
	 EndSite
	 {
	 OFFSET 0 -1 0
	 }
}
ROOT v
{
	 OFFSET 0 0 0
	 CHANNELS 3 XPosition YPosition Z Position
	 EndSite
	 {
	 OFFSET 0 -1 0
	 }
}
ROOT bn
{
	 OFFSET 0 0 0
	 CHANNELS 3 XPosition YPosition Z Position
	 EndSite
	 {
	 OFFSET 0 -1 0
	 }
}
MOTION
Frames: 16
Frame Time: 0.002
-0.0201224365234375	-0.0017725729942321777	0		0.5468453979492187	-2.55228759765625	0		-1.0313829345703125	0.1939548797607422	0		-0.5443517456054687	-2.69543359375	0		2.143620849609375	-1.4103887939453126	0		3.710247314453125	-0.69109619140625	0		4.94088037109375	-0.51897509765625	0		5.9792099609375	0.3900206298828125	0		0.007574583053588867	5.959455078125	0		
0.005889982223510742	-0.002030388116836548	0		0.4997571105957031	-2.5574873046875	0		-1.0313660888671874	0.1940837860107422	0		-0.54972216796875	-2.7202333984375	0		2.19937109375	-1.428099365234375	0		3.733356201171875	-0.684342041015625	0		4.943978515625	-0.5129400024414063	0		5.9831259765625	0.383033935546875	0		0.009609843254089355	5.95754638671875	0		
0.005862957000732422	-0.0019067699909210206	0		0.5266801147460938	-2.559760009765625	0		-1.036449462890625	0.19028790283203126	0		-0.5510739135742188	-2.741089111328125	0		2.163366943359375	-1.42546728515625	0		3.729674072265625	-0.6601889038085937	0		4.94423876953125	-0.49285317993164063	0		5.97943701171875	0.4061713562011719	0		0.009624700546264648	5.957669921875	0		
-0.013107603073120117	0.005495850086212158	0		0.4996227416992188	-2.557243408203125	0		-1.0365228271484375	0.19042060852050782	0		-0.5195609741210937	-2.76842236328125	0		2.2100751953125	-1.4400361328125	0		3.755345458984375	-0.6774607543945312	0		4.96511572265625	-0.496060791015625	0		5.9791318359375	0.39026498413085936	0		-0.023513628005981446	5.95127783203125	0		
0.005661230087280273	-0.0016507320404052733	0		0.5503471069335938	-2.5668583984375	0		-1.0417069091796876	0.18662811279296876	0		-0.573928466796875	-2.783501953125	0		2.18687109375	-1.4445814208984376	0		3.75256494140625	-0.6533076782226562	0		4.964986328125	-0.4959544677734375	0		5.9751376953125	0.39942388916015625	0		-0.02361312484741211	5.95140771484375	0		
-0.020520332336425782	-0.0011402289867401122	0		0.5191280517578125	-2.568276611328125	0		-1.0120103759765624	0.17832704162597657	0		-0.5065667419433594	-2.814356201171875	0		2.250456298828125	-1.4603883056640625	0		3.75237841796875	-0.65318896484375	0		4.96712060546875	-0.47387142944335936	0		5.978837890625	0.39147747802734373	0		0.01030692195892334	5.95704296875	0		
-0.020764404296875	-0.0010069080591201783	0		0.535599853515625	-2.58739013671875	0		-1.0973033447265625	0.17570169067382813	0		-0.5830855712890625	-2.832112060546875	0		2.21219873046875	-1.4607059326171874	0		3.746250244140625	-0.64497705078125	0		4.98093212890625	-0.4699530944824219	0		5.9705810546875	0.39071484375	0		0.011060725212097168	5.956162109375	0		
-0.018009515762329103	0.003083414077758789	0		0.53632421875	-2.58527099609375	0		-1.0525528564453126	0.1791805419921875	0		-0.5457005615234375	-2.853529052734375	0		2.2665390625	-1.485371826171875	0		3.78569482421875	-0.6624260864257813	0		4.993685546875	-0.46601162719726563	0		5.97827734375	0.39072897338867185	0		-0.021351856231689455	5.948763671875	0		
-0.014323101043701172	0.006159871101379394	0		0.537998779296875	-2.58316455078125	0		-1.04785205078125	0.18324131774902344	0		-0.593180908203125	-2.86170849609375	0		2.299092529296875	-1.4917149658203126	0		3.788819091796875	-0.6293345947265625	0		5.00151806640625	-0.45298974609375	0		5.9781533203125	0.4068681030273438	0		0.027528120040893556	5.9651826171875	0		
0.0041715831756591795	-9.81689989566803E-4	0		0.5574417724609375	-2.59431884765625	0		-1.0173737182617189	0.17492233276367186	0		-0.49209555053710935	-2.898057861328125	0		2.293608154296875	-1.4975008544921875	0		3.7812744140625	-0.6390870971679687	0		5.0172470703125	-0.4440762634277344	0		5.977517578125	0.39101992797851565	0		-0.023116500854492187	5.9500478515625	0		
-0.02225907325744629	-4.7065600752830503E-4	0		0.5280225219726562	-2.593761962890625	0		-1.0578035888671875	0.1756329345703125	0		-0.53761376953125	-2.904271484375	0		2.33117724609375	-1.497912353515625	0		3.7759609375	-0.63086669921875	0		5.00991845703125	-0.43682131958007814	0		5.976849609375	0.375179443359375	0		-0.004679319858551026	5.94290380859375	0		
-0.0038140530586242677	-0.007618764877319336	0		0.56139404296875	-2.60712451171875	0		-1.0233176879882813	0.17124534606933595	0		-0.538353271484375	-2.92514453125	0		2.301665283203125	-1.50234765625	0		3.80349609375	-0.632123779296875	0		5.03042431640625	-0.43996893310546875	0		5.97252783203125	0.3844003601074219	0		0.010021851539611817	5.95581201171875	0		
-0.02010375213623047	0.00373492693901062	0		0.5459059448242187	-2.610779296875	0		-1.104761962890625	0.172538330078125	0		-0.5669102783203125	-2.9336181640625	0		2.32420849609375	-1.5035426025390626	0		3.799384521484375	-0.6089166870117187	0		5.042265625	-0.41998492431640627	0		5.97205859375	0.3835684814453125	0		-0.023573923110961913	5.9494150390625	0		
0.059440303802490234	0.0016863609552383422	0		0.5895512084960938	-2.607299560546875	0		-1.024205078125	0.17146487426757812	0		-0.5384785766601563	-2.94492919921875	0		2.34371484375	-1.5086959228515624	0		3.836749755859375	-0.6233170166015625	0		5.05692236328125	-0.41404107666015627	0		5.9847373046875	0.3915499572753906	0		0.009020801544189452	5.95504931640625	0		
-0.023990541458129882	5.610000225715339E-7	0		0.5311904907226562	-2.606343017578125	0		-1.0787716064453126	0.1603464813232422	0		-0.5479715576171875	-2.953696533203125	0		2.345379150390625	-1.5055921630859375	0		3.838593017578125	-0.6071979370117188	0		5.06063232421875	-0.4069365234375	0		5.97923583984375	0.38479718017578124	0		0.008558319091796876	5.95515625	0		
0.05464216995239258	-0.0020490710735321044	0		0.573889404296875	-2.605863037109375	0		-1.039122314453125	0.1598495178222656	0		-0.5574224243164062	-2.96347412109375	0		2.358834716796875	-1.5206661376953126	0		3.855312744140625	-0.6032984008789063	0		5.06339453125	-0.399818359375	0		5.974755859375	0.3760303955078125	0		0.0081376371383667	5.95525439453125	0		
